<svg width="113" height="35" viewBox="0 0 113 35" fill="none" xmlns="http://www.w3.org/2000/svg">
<path d="M6.9509 12.872L7.73411 12.2502L5.9509 10.004V12.872H6.9509ZM6.9509 34.76V35.76H7.9509V34.76H6.9509ZM0.326902 34.76H-0.673098V35.76H0.326902V34.76ZM0.326902 0.680008V-0.319992H-0.673098V0.680008H0.326902ZM5.6069 0.680008L6.3938 0.0629292L6.09352 -0.319992H5.6069V0.680008ZM23.2229 23.144L22.436 23.7611L24.2229 26.0398V23.144H23.2229ZM23.2229 0.728007V-0.271993H22.2229V0.728007H23.2229ZM29.8469 0.728007H30.8469V-0.271993H29.8469V0.728007ZM29.8469 34.76V35.76H30.8469V34.76H29.8469ZM24.3269 34.76L23.5437 35.3818L23.844 35.76H24.3269V34.76ZM5.9509 12.872V34.76H7.9509V12.872H5.9509ZM6.9509 33.76H0.326902V35.76H6.9509V33.76ZM1.3269 34.76V0.680008H-0.673098V34.76H1.3269ZM0.326902 1.68001H5.6069V-0.319992H0.326902V1.68001ZM4.82 1.29709L22.436 23.7611L24.0098 22.5269L6.3938 0.0629292L4.82 1.29709ZM24.2229 23.144V0.728007H22.2229V23.144H24.2229ZM23.2229 1.72801H29.8469V-0.271993H23.2229V1.72801ZM28.8469 0.728007V34.76H30.8469V0.728007H28.8469ZM29.8469 33.76H24.3269V35.76H29.8469V33.76ZM25.1101 34.1383L7.73411 12.2502L6.16769 13.4938L23.5437 35.3818L25.1101 34.1383ZM60.6003 28.952H61.6003V27.952H60.6003V28.952ZM60.6003 34.76V35.76H61.6003V34.76H60.6003ZM36.9363 34.76H35.9363V35.76H36.9363V34.76ZM36.9363 0.680008V-0.319992H35.9363V0.680008H36.9363ZM60.1683 0.680008H61.1683V-0.319992H60.1683V0.680008ZM60.1683 6.48801V7.48801H61.1683V6.48801H60.1683ZM43.5603 6.48801V5.48801H42.5603V6.48801H43.5603ZM43.5603 14.696H42.5603V15.696H43.5603V14.696ZM57.9123 14.696H58.9123V13.696H57.9123V14.696ZM57.9123 20.072V21.072H58.9123V20.072H57.9123ZM43.5603 20.072V19.072H42.5603V20.072H43.5603ZM43.5603 28.952H42.5603V29.952H43.5603V28.952ZM59.6003 28.952V34.76H61.6003V28.952H59.6003ZM60.6003 33.76H36.9363V35.76H60.6003V33.76ZM37.9363 34.76V0.680008H35.9363V34.76H37.9363ZM36.9363 1.68001H60.1683V-0.319992H36.9363V1.68001ZM59.1683 0.680008V6.48801H61.1683V0.680008H59.1683ZM60.1683 5.48801H43.5603V7.48801H60.1683V5.48801ZM42.5603 6.48801V14.696H44.5603V6.48801H42.5603ZM43.5603 15.696H57.9123V13.696H43.5603V15.696ZM56.9123 14.696V20.072H58.9123V14.696H56.9123ZM57.9123 19.072H43.5603V21.072H57.9123V19.072ZM42.5603 20.072V28.952H44.5603V20.072H42.5603ZM43.5603 29.952H60.6003V27.952H43.5603V29.952ZM77.4284 0.77601V-0.22399H75.9859L76.492 1.12682L77.4284 0.77601ZM83.5724 0.77601L84.5178 0.450143L84.2855 -0.22399H83.5724V0.77601ZM87.4604 12.056L86.515 12.3819L87.4546 15.1079L88.4046 12.3855L87.4604 12.056ZM91.3964 0.77601V-0.22399H90.6862L90.4522 0.446554L91.3964 0.77601ZM97.4924 0.77601L98.4279 1.12935L98.9391 -0.22399H97.4924V0.77601ZM91.6364 16.28L90.7009 15.9267L90.5638 16.2896L90.7074 16.65L91.6364 16.28ZM95.9564 27.128L95.0274 27.498L95.9974 29.9337L96.8958 27.4707L95.9564 27.128ZM105.604 0.680008V-0.319992H104.905L104.665 0.337307L105.604 0.680008ZM112.804 0.680008L113.733 1.0514L114.281 -0.319992H112.804V0.680008ZM99.1724 34.76V35.76H99.8494L100.101 35.1314L99.1724 34.76ZM93.4604 34.76L92.5382 35.1468L92.7955 35.76H93.4604V34.76ZM87.4604 20.456L88.3826 20.0692L87.4567 17.8619L86.5371 20.0718L87.4604 20.456ZM81.5084 34.76V35.76H82.1754L82.4317 35.1442L81.5084 34.76ZM75.7964 34.76L74.8675 35.1303L75.1185 35.76H75.7964V34.76ZM62.2124 0.680008V-0.319992H60.7373L61.2835 1.05027L62.2124 0.680008ZM69.3164 0.680008L70.2553 0.335803L70.0149 -0.319992H69.3164V0.680008ZM79.0124 27.128L78.0735 27.4722L78.9842 29.9564L79.9443 27.4909L79.0124 27.128ZM83.2364 16.28L84.1683 16.6429L84.3069 16.2869L84.1729 15.9292L83.2364 16.28ZM77.4284 1.77601H83.5724V-0.22399H77.4284V1.77601ZM82.627 1.10188L86.515 12.3819L88.4058 11.7301L84.5178 0.450143L82.627 1.10188ZM88.4046 12.3855L92.3406 1.10546L90.4522 0.446554L86.5162 11.7266L88.4046 12.3855ZM91.3964 1.77601H97.4924V-0.22399H91.3964V1.77601ZM96.5569 0.422666L90.7009 15.9267L92.5719 16.6334L98.4279 1.12935L96.5569 0.422666ZM90.7074 16.65L95.0274 27.498L96.8854 26.758L92.5654 15.91L90.7074 16.65ZM96.8958 27.4707L106.544 1.02271L104.665 0.337307L95.017 26.7853L96.8958 27.4707ZM105.604 1.68001H112.804V-0.319992H105.604V1.68001ZM111.876 0.308618L98.2439 34.3886L100.101 35.1314L113.733 1.0514L111.876 0.308618ZM99.1724 33.76H93.4604V35.76H99.1724V33.76ZM94.3826 34.3732L88.3826 20.0692L86.5382 20.8428L92.5382 35.1468L94.3826 34.3732ZM86.5371 20.0718L80.5851 34.3758L82.4317 35.1442L88.3837 20.8402L86.5371 20.0718ZM81.5084 33.76H75.7964V35.76H81.5084V33.76ZM76.7253 34.3897L63.1413 0.309746L61.2835 1.05027L74.8675 35.1303L76.7253 34.3897ZM62.2124 1.68001H69.3164V-0.319992H62.2124V1.68001ZM68.3775 1.02421L78.0735 27.4722L79.9513 26.7838L70.2553 0.335803L68.3775 1.02421ZM79.9443 27.4909L84.1683 16.6429L82.3046 15.9172L78.0806 26.7652L79.9443 27.4909ZM84.1729 15.9292L78.3649 0.425203L76.492 1.12682L82.3 16.6308L84.1729 15.9292Z" fill="white"/>
</svg>
