<?xml version="1.0" standalone="no"?>
<!DOCTYPE svg PUBLIC "-//W3C//DTD SVG 20010904//EN"
 "http://www.w3.org/TR/2001/REC-SVG-20010904/DTD/svg10.dtd">
<svg version="1.0" xmlns="http://www.w3.org/2000/svg"
 width="399.000000pt" height="399.000000pt" viewBox="0 0 399.000000 399.000000"
 preserveAspectRatio="xMidYMid meet">

<g transform="translate(0.000000,399.000000) scale(0.100000,-0.100000)"
fill="#000000" stroke="none">
<path d="M1690 3935 c-52 -8 -99 -14 -105 -15 -5 0 3 -9 20 -20 75 -49 84
-116 35 -250 -16 -45 -30 -83 -30 -85 0 -3 12 -11 27 -18 25 -14 29 -12 82 29
31 23 79 54 106 69 31 16 52 34 55 48 6 21 12 22 108 25 l103 3 10 -28 c6 -19
26 -37 62 -56 29 -15 74 -45 101 -67 46 -39 49 -39 77 -25 16 9 29 17 29 20 0
2 -13 40 -30 85 -41 111 -41 174 1 219 16 18 28 35 26 37 -2 3 -42 11 -88 20
-118 22 -465 27 -589 9z"/>
<path d="M1495 3899 c-168 -38 -465 -167 -612 -266 -179 -119 -356 -286 -479
-448 -60 -79 -174 -260 -174 -277 0 -4 70 -8 155 -8 l155 0 42 30 c57 42 138
64 208 57 57 -5 145 -42 169 -71 10 -12 31 -16 79 -16 62 0 64 1 49 18 -10 10
-17 26 -17 35 0 15 22 17 238 17 208 0 242 -3 277 -19 22 -10 46 -25 54 -34
10 -13 30 -17 79 -17 64 0 65 0 47 20 -9 10 -15 26 -12 35 9 23 365 23 374 0
3 -9 -3 -25 -12 -35 -18 -20 -17 -20 19 -20 36 0 36 0 20 25 -8 13 -13 29 -9
35 4 6 59 10 143 10 l137 0 24 -35 c16 -24 31 -35 49 -35 24 0 25 1 7 20 -9
10 -15 26 -11 35 5 13 27 15 157 13 156 -3 177 -9 144 -41 -20 -21 -19 -27 5
-27 13 0 20 7 20 19 0 10 8 29 18 41 34 42 102 21 116 -36 8 -32 48 -33 65 -1
6 12 28 33 48 47 51 35 165 41 241 12 50 -19 56 -20 87 -5 47 22 65 12 65 -37
l0 -40 110 0 c61 0 110 4 110 8 0 18 -115 200 -178 282 -216 280 -506 497
-837 628 -98 39 -215 76 -219 70 -9 -15 -26 -62 -26 -73 0 -7 34 -49 75 -92
42 -43 84 -96 95 -119 44 -89 16 -192 -80 -297 -37 -41 -49 -61 -42 -70 17
-21 22 -136 6 -151 -14 -14 -72 -19 -354 -31 -167 -7 -583 11 -612 26 -19 10
-20 17 -14 82 4 39 12 74 18 78 8 5 -7 28 -42 66 -75 82 -104 149 -97 225 6
71 27 105 121 200 67 68 74 84 56 119 -8 13 -7 25 0 39 12 23 9 23 -55 9z"/>
<path d="M1910 3668 c0 -13 -7 -102 -15 -198 -8 -96 -15 -190 -15 -207 l0 -33
105 0 c103 0 105 0 105 23 0 13 -9 111 -20 218 -11 107 -20 200 -20 207 0 8
-21 12 -70 12 -66 0 -70 -1 -70 -22z m121 -14 c18 -21 2 -63 -26 -70 -35 -9
-53 1 -61 32 -13 50 53 78 87 38z m4 -138 c13 -19 13 -28 4 -50 -16 -33 -44
-42 -74 -22 -27 18 -34 63 -13 84 21 21 66 14 83 -12z m-3 -133 c38 -34 11
-103 -40 -103 -32 0 -62 27 -62 54 0 56 62 86 102 49z"/>
<path d="M1787 3580 c-97 -64 -162 -140 -193 -226 -24 -66 -30 -103 -16 -105
4 -1 64 -4 134 -7 l128 -7 5 40 c8 69 26 347 22 351 -2 2 -38 -19 -80 -46z"/>
<path d="M2163 3574 c3 -16 20 -98 39 -182 l33 -153 85 3 85 3 -3 40 c-7 96
-110 241 -212 299 l-33 19 6 -29z"/>
<path d="M2856 2955 c-8 -8 -17 -23 -21 -34 -7 -22 10 -70 25 -72 5 -1 16 -2
22 -3 23 -2 19 -33 -7 -65 -28 -33 -27 -38 6 -21 28 15 59 83 59 130 0 63 -48
100 -84 65z"/>
<path d="M3101 2952 c-65 -32 -95 -102 -80 -185 8 -44 49 -93 96 -113 18 -8
81 -21 140 -30 59 -9 114 -21 121 -26 21 -18 14 -56 -13 -74 -20 -13 -41 -16
-98 -12 -83 6 -142 31 -199 86 l-38 36 0 -82 c0 -45 3 -82 8 -82 4 0 18 7 30
16 21 14 27 13 88 -11 48 -19 83 -26 135 -26 124 -1 189 54 189 158 0 124 -50
159 -279 194 -68 10 -111 33 -111 57 0 21 29 44 65 52 68 15 157 -10 232 -66
17 -13 34 -24 37 -24 3 0 6 31 6 70 l0 70 -34 -17 c-33 -15 -37 -15 -85 5 -63
28 -161 30 -210 4z"/>
<path d="M695 2951 c-77 -20 -154 -84 -186 -155 -25 -56 -25 -155 1 -205 10
-21 40 -57 65 -79 139 -122 353 -82 436 80 25 50 25 148 0 205 -24 51 -84 113
-135 137 -43 20 -136 29 -181 17z m132 -80 c37 -36 53 -90 53 -174 0 -75 -25
-146 -61 -171 -13 -9 -40 -16 -60 -16 -48 0 -91 41 -109 104 -16 59 -9 170 15
219 33 70 112 89 162 38z"/>
<path d="M1148 2898 l42 -44 0 -149 0 -149 -42 -43 c-34 -35 -39 -43 -25 -49
9 -3 104 -4 209 -2 169 3 199 6 238 24 93 43 134 107 135 209 0 60 -4 78 -31
125 -18 32 -49 68 -73 85 l-43 30 -226 3 -227 3 43 -43z m352 -43 c34 -31 50
-70 56 -138 7 -74 -10 -132 -46 -159 -28 -21 -156 -32 -177 -15 -14 11 -19
318 -5 331 4 4 39 6 79 4 53 -2 77 -8 93 -23z"/>
<path d="M1800 2932 c0 -4 18 -26 40 -47 l40 -39 0 -139 0 -138 -40 -48 c-22
-26 -40 -51 -40 -55 0 -3 63 -6 140 -5 77 0 140 4 140 7 0 3 -18 27 -40 53
l-40 48 0 138 0 139 40 39 c22 21 40 43 40 47 0 4 -63 8 -140 8 -77 0 -140 -4
-140 -8z"/>
<path d="M2199 2923 c5 -10 23 -31 40 -47 l31 -30 0 -141 0 -141 -40 -44 c-22
-25 -40 -48 -40 -52 0 -5 50 -8 110 -8 61 0 110 3 110 6 0 3 -18 27 -40 52
l-41 46 3 80 c4 117 18 111 126 -49 l87 -130 65 0 65 0 5 195 5 196 38 39 39
40 -107 3 c-59 1 -110 0 -113 -3 -3 -3 13 -25 37 -49 l42 -43 -3 -74 c-4 -111
-19 -106 -123 45 l-86 126 -110 0 c-101 0 -109 -1 -100 -17z"/>
<path d="M171 2788 c-119 -281 -164 -496 -164 -788 0 -191 16 -320 59 -486 40
-154 143 -414 164 -414 20 0 135 87 177 135 49 56 72 96 191 345 38 80 76 153
83 162 13 17 23 12 134 -55 78 -48 119 -78 116 -88 -2 -8 -6 -22 -8 -31 -4
-13 17 -28 93 -66 l98 -49 -3 -114 c-1 -63 -4 -115 -5 -116 -1 -2 -76 33 -165
77 -122 60 -167 78 -176 70 -20 -17 -122 -172 -134 -203 -32 -83 60 -155 263
-206 58 -16 79 -28 148 -87 l81 -69 -34 -13 c-92 -38 -186 -54 -309 -55 -139
-1 -210 13 -317 63 -35 16 -63 26 -63 23 0 -10 72 -95 155 -182 306 -319 723
-526 1178 -582 139 -17 431 -7 572 20 172 32 424 113 432 138 7 20 -274 296
-356 350 -2 1 9 22 25 47 26 40 31 44 60 39 27 -5 38 0 64 26 18 18 37 28 43
24 49 -29 235 -183 297 -245 l29 -28 -56 -91 c-30 -50 -53 -93 -49 -96 8 -8
170 82 261 145 120 83 225 173 321 275 94 101 119 136 88 122 -64 -28 -167
-46 -262 -46 -114 0 -181 10 -291 44 l-74 22 84 71 c75 63 92 73 157 89 149
36 262 111 262 174 0 37 -126 241 -149 241 -5 0 -79 -34 -165 -76 -87 -41
-159 -74 -161 -72 -1 2 -6 53 -10 113 l-6 110 83 42 c111 57 126 68 111 84 -7
7 -13 19 -13 25 0 14 236 157 248 150 8 -5 61 -109 155 -306 36 -74 79 -154
95 -177 32 -43 146 -143 163 -143 15 0 76 137 119 270 127 385 127 817 0 1199
-48 146 -79 217 -88 205 -5 -5 -18 -32 -31 -59 l-22 -50 45 -98 c25 -54 46
-100 46 -103 0 -2 -63 -4 -141 -4 l-140 0 -37 -30 c-66 -53 -191 -58 -304 -13
-38 15 -43 15 -74 -2 -40 -21 -64 -14 -64 20 l0 25 -145 0 c-137 0 -145 -1
-145 -20 0 -30 -30 -40 -111 -35 -65 3 -75 6 -92 29 -22 31 -62 36 -52 7 10
-34 -15 -40 -150 -37 -181 4 -168 2 -161 31 5 19 2 25 -9 25 -11 0 -14 -6 -9
-24 5 -21 2 -24 -38 -30 -49 -7 -274 -6 -313 2 -22 4 -26 9 -21 28 6 23 4 24
-51 24 -36 0 -71 -7 -98 -20 -66 -32 -134 -40 -337 -37 l-193 2 0 28 c1 26 -1
27 -50 27 -39 0 -59 -6 -86 -25 -90 -67 -224 -71 -334 -11 l-66 36 -159 0
-160 0 9 23 c5 12 25 58 44 103 l35 80 -41 97 c-23 53 -44 97 -47 97 -3 0 -26
-46 -49 -102z m3393 -420 c-7 -11 -91 -114 -373 -457 -97 -117 -154 -187 -246
-299 l-100 -122 -16 47 c-36 105 -123 241 -193 300 -18 16 -54 56 -80 90 -59
78 -142 147 -226 187 -60 29 -73 31 -170 31 -89 0 -111 -4 -148 -23 l-42 -23
-75 27 c-64 23 -87 26 -157 22 -181 -9 -301 -109 -519 -433 -19 -29 -48 -88
-64 -131 -15 -44 -31 -83 -35 -87 -4 -4 -33 25 -65 65 -33 40 -118 145 -191
233 -72 88 -204 250 -293 360 l-162 200 223 3 c123 1 765 6 1428 11 663 4
1274 8 1358 9 120 2 152 -1 146 -10z m-1647 -291 l51 -25 52 26 c29 14 76 28
105 30 145 12 328 -84 421 -220 16 -24 59 -72 95 -108 108 -107 165 -233 175
-390 6 -91 -11 -200 -42 -265 -18 -39 -54 -47 -85 -20 -15 15 -17 12 -24 -32
-11 -76 -54 -202 -96 -284 -60 -116 -90 -139 -130 -103 -17 15 -19 13 -42 -33
-44 -87 -72 -108 -117 -89 -11 4 -27 -17 -60 -82 -80 -155 -291 -344 -349
-312 -19 10 -21 20 -21 114 0 144 -5 166 -40 166 -29 0 -67 35 -125 116 -28
40 -29 41 -56 25 -26 -14 -29 -14 -69 14 -88 61 -202 225 -255 369 l-19 48
-19 -26 c-20 -28 -57 -35 -75 -13 -6 7 -18 53 -28 102 -24 122 -24 327 0 415
23 84 86 204 134 255 20 22 53 67 72 99 121 205 376 309 547 223z m-455 -1414
c24 -25 62 -58 86 -73 l42 -28 -97 -85 c-98 -85 -182 -169 -240 -240 l-31 -39
-66 111 c-45 73 -65 117 -61 129 7 20 126 124 240 211 43 34 80 61 82 61 1 0
22 -21 45 -47z"/>
<path d="M1680 2061 c-157 -50 -272 -161 -328 -315 -45 -122 -37 -133 41 -55
84 84 196 149 256 149 17 0 16 -6 -15 -51 -59 -88 -41 -104 40 -36 84 71 96
77 154 77 53 0 132 31 132 52 0 5 16 -3 35 -18 28 -21 52 -28 110 -34 78 -8
106 -22 182 -93 18 -17 36 -28 39 -24 10 10 -4 51 -31 91 -14 21 -25 40 -23
41 2 2 25 -1 51 -6 87 -16 164 -68 250 -169 l39 -45 -5 43 c-8 63 -76 198
-131 260 -137 151 -386 198 -485 90 l-20 -21 -35 31 c-62 54 -155 66 -256 33z
m194 -62 c49 -23 74 -45 34 -30 -85 31 -222 20 -324 -28 -50 -23 -61 -26 -52
-12 15 24 67 59 124 82 61 24 152 20 218 -12z m423 1 c28 -12 66 -37 84 -56
l34 -35 -67 31 c-99 44 -185 57 -275 38 -40 -8 -73 -13 -73 -12 0 1 15 12 33
23 73 45 175 49 264 11z"/>
<path d="M1945 1759 c-11 -4 -55 -8 -98 -8 -84 -1 -107 -9 -171 -61 -29 -22
-48 -30 -70 -28 -30 3 -31 4 -29 50 l1 48 -31 -17 c-42 -21 -111 -74 -169
-129 -50 -47 -71 -53 -99 -28 -25 23 -36 12 -59 -64 -30 -94 -37 -260 -17
-376 9 -49 20 -93 25 -98 7 -7 18 7 31 37 12 27 23 46 26 44 2 -3 25 -54 51
-114 25 -61 64 -141 86 -178 46 -80 153 -197 178 -197 10 0 28 11 39 25 l20
26 58 -86 c60 -88 89 -109 124 -87 10 7 20 8 23 3 16 -25 36 -145 36 -213 0
-42 4 -79 9 -82 14 -9 122 76 173 135 71 85 107 148 151 272 6 17 9 17 29 3
49 -34 76 -13 114 90 l27 74 34 -35 c19 -20 40 -34 46 -32 41 13 113 209 142
388 l17 105 34 -34 c19 -19 39 -32 46 -30 24 8 41 62 46 149 6 109 -9 191 -53
285 -43 94 -55 100 -55 31 0 -41 -4 -56 -16 -61 -26 -10 -30 -8 -68 42 -32 41
-150 142 -167 142 -4 0 -9 -11 -13 -23 -6 -27 -43 -77 -56 -77 -5 0 -26 19
-47 41 -54 59 -82 68 -184 62 -48 -3 -99 -1 -115 4 -16 6 -38 7 -49 2z"/>
</g>
</svg>
