<?xml version="1.0" standalone="no"?>
<!DOCTYPE svg PUBLIC "-//W3C//DTD SVG 20010904//EN"
 "http://www.w3.org/TR/2001/REC-SVG-20010904/DTD/svg10.dtd">
<svg version="1.0" xmlns="http://www.w3.org/2000/svg"
 width="399.000000pt" height="399.000000pt" viewBox="0 0 399.000000 399.000000"
 preserveAspectRatio="xMidYMid meet">

<g transform="translate(0.000000,399.000000) scale(0.100000,-0.100000)"
fill="#000000" stroke="none">
<path d="M1 3033 c1 -594 5 -922 10 -864 17 187 66 391 135 558 20 49 43 105
52 126 8 20 18 37 21 37 4 0 25 -44 48 -97 l41 -97 -35 -80 c-19 -45 -39 -91
-44 -103 l-9 -23 160 0 159 0 66 -36 c110 -60 244 -56 334 11 27 19 47 25 86
25 49 0 51 -1 50 -27 l0 -28 193 -2 c203 -3 271 5 337 37 27 13 62 20 98 20
55 0 57 -1 51 -24 -5 -19 -1 -24 21 -28 39 -8 264 -9 313 -2 40 6 43 9 38 30
-5 18 -2 24 9 24 11 0 14 -6 9 -25 -7 -29 -20 -27 161 -31 135 -3 160 3 150
37 -10 29 30 24 52 -7 17 -23 27 -26 92 -29 81 -5 111 5 111 35 0 19 8 20 145
20 l145 0 0 -25 c0 -34 24 -41 64 -20 31 17 36 17 74 2 113 -45 238 -40 304
13 l37 30 140 0 c78 0 141 2 141 4 0 3 -21 49 -46 103 l-45 98 22 50 c13 27
26 54 31 59 9 12 40 -59 88 -205 127 -382 127 -814 0 -1199 -43 -133 -104
-270 -119 -270 -17 0 -131 100 -163 143 -16 23 -59 103 -95 177 -94 197 -147
301 -155 306 -12 7 -248 -136 -248 -150 0 -6 6 -18 13 -25 15 -16 0 -27 -111
-84 l-83 -42 6 -110 c4 -60 9 -111 10 -113 2 -2 74 31 161 72 86 42 160 76
165 76 23 0 149 -204 149 -241 0 -63 -113 -138 -262 -174 -65 -16 -82 -26
-157 -89 l-84 -71 74 -22 c110 -34 177 -44 291 -44 95 0 198 18 262 46 31 14
6 -21 -88 -122 -96 -102 -201 -192 -321 -275 -91 -63 -253 -153 -261 -145 -4
3 19 46 49 96 l56 91 -29 28 c-62 62 -248 216 -297 245 -6 4 -25 -6 -43 -24
-26 -26 -37 -31 -64 -26 -29 5 -34 1 -60 -39 -16 -25 -27 -46 -25 -47 82 -54
363 -330 356 -350 -8 -25 -260 -106 -432 -138 -141 -27 -433 -37 -572 -20
-455 56 -872 263 -1178 582 -83 87 -155 172 -155 182 0 3 28 -7 62 -23 108
-50 179 -64 318 -63 123 1 217 17 309 55 l34 13 -81 69 c-69 59 -90 71 -148
87 -110 27 -178 57 -221 94 -46 39 -58 71 -42 112 12 31 114 186 134 203 9 8
54 -10 176 -70 89 -44 164 -79 165 -77 1 1 4 53 5 116 l3 114 -98 49 c-76 38
-97 53 -93 66 2 9 6 23 8 31 3 10 -38 40 -116 88 -111 67 -121 72 -134 55 -7
-9 -45 -82 -83 -162 -119 -249 -142 -289 -191 -345 -42 -48 -157 -135 -177
-135 -10 0 -50 83 -95 200 -64 164 -108 352 -124 531 -5 58 -9 -272 -10 -868
l-1 -963 1995 0 1995 0 0 1995 0 1995 -1995 0 -1995 0 1 -957z m2278 893 c46
-9 86 -17 88 -20 2 -2 -10 -19 -26 -37 -42 -45 -42 -108 -1 -219 17 -45 30
-83 30 -85 0 -3 -13 -11 -29 -20 -28 -14 -31 -14 -77 25 -27 22 -72 52 -101
67 -36 19 -56 37 -62 56 l-10 28 -103 -3 c-96 -3 -102 -4 -108 -25 -3 -14 -24
-32 -55 -48 -27 -15 -75 -46 -106 -69 -53 -41 -57 -43 -82 -29 -15 7 -27 15
-27 18 0 2 14 40 30 85 49 134 40 201 -35 250 -17 11 -25 20 -20 20 6 1 53 7
105 15 124 18 471 13 589 -9z m-729 -36 c-7 -14 -8 -26 0 -39 18 -35 11 -51
-56 -119 -94 -95 -115 -129 -121 -200 -7 -76 22 -143 97 -225 35 -38 50 -61
42 -66 -6 -4 -14 -39 -18 -78 -6 -65 -5 -72 14 -82 69 -37 929 -33 966 5 16
15 11 130 -6 151 -7 9 5 29 42 70 96 105 124 208 80 297 -11 23 -53 76 -95
119 -41 43 -75 85 -75 92 0 11 17 58 26 73 4 6 121 -31 219 -70 331 -131 621
-348 837 -628 63 -82 178 -264 178 -282 0 -4 -49 -8 -110 -8 l-110 0 0 40 c0
49 -18 59 -65 37 -31 -15 -37 -14 -87 5 -76 29 -190 23 -241 -12 -20 -14 -42
-35 -48 -47 -17 -32 -57 -31 -65 1 -14 57 -82 78 -116 36 -10 -12 -18 -31 -18
-41 0 -12 -7 -19 -20 -19 -24 0 -25 6 -5 27 33 32 12 38 -144 41 -130 2 -152
0 -157 -13 -4 -9 2 -25 11 -35 18 -19 17 -20 -7 -20 -18 0 -33 11 -49 35 l-24
35 -137 0 c-84 0 -139 -4 -143 -10 -4 -6 1 -22 9 -35 16 -25 16 -25 -20 -25
-36 0 -37 0 -19 20 9 10 15 26 12 35 -9 23 -365 23 -374 0 -3 -9 3 -25 12 -35
18 -20 17 -20 -47 -20 -49 0 -69 4 -79 17 -8 9 -32 24 -54 34 -35 16 -69 19
-277 19 -216 0 -238 -2 -238 -17 0 -9 7 -25 17 -35 15 -17 13 -18 -49 -18 -48
0 -69 4 -79 16 -24 29 -112 66 -169 71 -70 7 -151 -15 -208 -57 l-42 -30 -155
0 c-85 0 -155 4 -155 8 0 17 114 198 174 277 123 162 300 329 479 448 147 99
444 228 612 266 64 14 67 14 55 -9z m500 -212 c0 -7 9 -100 20 -207 11 -107
20 -205 20 -218 0 -23 -2 -23 -105 -23 l-105 0 0 33 c0 17 7 111 15 207 8 96
15 185 15 198 0 21 4 22 70 22 49 0 70 -4 70 -12z m-190 -209 c-6 -85 -13
-172 -15 -194 l-5 -40 -128 7 c-70 3 -130 6 -134 7 -31 4 27 157 86 226 41 48
193 161 203 151 2 -2 -1 -73 -7 -157z m422 39 c64 -62 115 -156 120 -223 l3
-40 -85 -3 -85 -3 -33 153 c-19 84 -36 166 -39 182 l-6 29 33 -19 c19 -11 60
-44 92 -76z m638 -558 c38 -38 13 -162 -39 -190 -33 -17 -34 -12 -6 21 26 32
30 63 7 65 -6 1 -17 2 -22 3 -15 2 -32 50 -25 72 8 25 33 49 51 49 8 0 23 -9
34 -20z m391 -2 c48 -20 52 -20 85 -5 l34 17 0 -70 c0 -39 -3 -70 -6 -70 -3 0
-20 11 -37 24 -75 56 -164 81 -232 66 -36 -8 -65 -31 -65 -52 0 -24 43 -47
111 -57 229 -35 279 -70 279 -194 0 -104 -65 -159 -189 -158 -52 0 -87 7 -135
26 -61 24 -67 25 -88 11 -12 -9 -26 -16 -30 -16 -5 0 -8 37 -8 82 l0 82 38
-36 c57 -55 116 -80 199 -86 57 -4 78 -1 98 12 27 18 34 56 13 74 -7 5 -62 17
-121 26 -125 19 -161 32 -201 74 -47 51 -52 152 -9 210 47 64 167 82 264 40z
m-2435 -14 c51 -24 111 -86 135 -137 25 -57 25 -155 0 -205 -83 -162 -297
-202 -436 -80 -25 22 -55 58 -65 79 -26 50 -26 149 -1 205 32 71 109 135 186
155 45 12 138 3 181 -17z m725 -29 c24 -17 55 -53 73 -85 27 -47 31 -65 31
-125 -1 -102 -42 -166 -135 -209 -39 -18 -69 -21 -238 -24 -105 -2 -200 -1
-209 2 -14 6 -9 14 25 49 l42 43 0 149 0 149 -42 44 -43 43 227 -3 226 -3 43
-30z m479 27 c0 -4 -18 -26 -40 -47 l-40 -39 0 -139 0 -138 40 -48 c22 -26 40
-50 40 -53 0 -3 -63 -7 -140 -7 -77 -1 -140 2 -140 5 0 4 18 29 40 55 l40 48
0 138 0 139 -40 39 c-22 21 -40 43 -40 47 0 4 63 8 140 8 77 0 140 -4 140 -8z
m415 -118 c104 -151 119 -156 123 -45 l3 74 -42 43 c-24 24 -40 46 -37 49 3 3
54 4 113 3 l107 -3 -39 -40 -38 -39 -5 -196 -5 -195 -65 0 -65 0 -87 130
c-108 160 -122 166 -126 49 l-3 -80 41 -46 c22 -25 40 -49 40 -52 0 -3 -49 -6
-110 -6 -60 0 -110 3 -110 8 0 4 18 27 40 52 l40 44 0 141 0 141 -31 30 c-65
61 -62 64 60 64 l110 0 86 -126z"/>
<path d="M1958 3661 c-16 -14 -19 -24 -14 -45 8 -31 26 -41 61 -32 15 4 27 16
31 31 12 47 -39 77 -78 46z"/>
<path d="M1952 3528 c-21 -21 -14 -66 13 -84 30 -20 58 -11 74 22 9 22 9 31
-4 50 -17 26 -62 33 -83 12z"/>
<path d="M1946 3378 c-21 -30 -20 -61 2 -81 40 -36 102 -9 102 45 0 53 -74 79
-104 36z"/>
<path d="M709 2885 c-37 -20 -61 -77 -67 -157 -9 -127 39 -218 117 -218 48 0
79 23 102 77 22 52 25 154 7 216 -25 82 -93 118 -159 82z"/>
<path d="M1328 2874 c-14 -13 -9 -320 5 -331 21 -17 149 -6 177 15 36 27 53
85 46 159 -10 118 -46 156 -149 161 -40 2 -75 0 -79 -4z"/>
<path d="M2060 2369 c-663 -5 -1305 -10 -1428 -11 l-223 -3 162 -200 c89 -110
221 -272 293 -360 73 -88 158 -193 191 -233 32 -40 61 -69 65 -65 4 4 20 43
35 87 16 43 45 102 64 131 162 240 255 339 371 397 53 26 80 33 148 36 70 4
93 1 157 -22 l75 -27 42 23 c37 19 59 23 148 23 97 0 110 -2 170 -31 84 -40
167 -109 226 -187 26 -34 62 -74 80 -90 70 -59 157 -195 193 -300 l16 -47 100
122 c92 112 149 182 246 299 282 343 366 446 373 457 6 9 -26 12 -146 10 -84
-1 -695 -5 -1358 -9z"/>
<path d="M1681 2095 c-128 -36 -242 -125 -311 -241 -19 -32 -52 -77 -72 -99
-48 -51 -111 -171 -134 -255 -24 -88 -24 -293 0 -415 10 -49 22 -95 28 -102
18 -22 55 -15 75 13 l19 26 19 -48 c53 -144 167 -308 255 -369 40 -28 43 -28
69 -14 27 16 28 15 56 -25 58 -81 96 -116 125 -116 35 0 40 -22 40 -166 0 -94
2 -104 21 -114 35 -19 104 24 209 129 76 77 104 114 140 183 33 65 49 86 60
82 45 -19 73 2 117 89 23 46 25 48 42 33 40 -36 70 -13 130 103 42 82 85 208
96 284 7 44 9 47 24 32 31 -27 67 -19 85 20 31 65 48 174 42 265 -10 157 -67
283 -175 390 -36 36 -79 84 -95 108 -93 136 -276 232 -421 220 -29 -2 -76 -16
-105 -30 l-52 -26 -51 25 c-63 32 -159 39 -236 18z m182 -26 c21 -5 53 -24 73
-41 l35 -31 20 21 c99 108 348 61 485 -90 55 -62 123 -197 131 -260 l5 -43
-39 45 c-86 101 -163 153 -250 169 -26 5 -49 8 -51 6 -2 -1 9 -20 23 -41 27
-40 41 -81 31 -91 -3 -4 -21 7 -39 24 -76 71 -104 85 -182 93 -58 6 -82 13
-110 34 -19 15 -35 23 -35 18 0 -21 -79 -52 -132 -52 -58 0 -70 -6 -154 -77
-81 -68 -99 -52 -40 36 31 45 32 51 15 51 -60 0 -172 -65 -256 -149 -58 -58
-77 -64 -67 -23 36 148 141 294 256 353 103 53 202 70 281 48z m246 -316 c102
6 130 -3 184 -62 21 -22 42 -41 47 -41 13 0 50 50 56 77 4 12 9 23 13 23 17 0
135 -101 167 -142 38 -50 42 -52 68 -42 12 5 16 20 16 61 0 69 12 63 55 -31
44 -94 59 -176 53 -285 -5 -87 -22 -141 -46 -149 -7 -2 -27 11 -46 30 l-34 34
-17 -105 c-29 -179 -101 -375 -142 -388 -6 -2 -27 12 -46 32 l-34 35 -27 -74
c-38 -103 -65 -124 -114 -90 -20 14 -23 14 -29 -3 -44 -124 -80 -187 -151
-272 -51 -59 -159 -144 -173 -135 -5 3 -9 40 -9 82 0 68 -20 188 -36 213 -3 5
-13 4 -23 -3 -35 -22 -64 -1 -124 87 l-58 86 -20 -26 c-11 -14 -29 -25 -39
-25 -25 0 -132 117 -178 197 -22 37 -61 117 -86 178 -26 60 -49 111 -51 114
-3 2 -14 -17 -26 -44 -13 -30 -24 -44 -31 -37 -5 5 -16 49 -25 98 -20 116 -13
282 17 376 23 76 34 87 59 64 28 -25 49 -19 99 28 58 55 127 108 169 129 l31
17 -1 -48 c-2 -46 -1 -47 29 -50 22 -2 41 6 70 28 64 52 87 60 171 61 43 0 87
4 98 8 11 5 33 4 49 -2 16 -5 67 -7 115 -4z"/>
<path d="M1656 2011 c-57 -23 -109 -58 -124 -82 -9 -14 2 -11 52 12 102 48
239 59 324 28 40 -15 15 7 -34 30 -66 32 -157 36 -218 12z"/>
<path d="M2106 2019 c-33 -8 -106 -45 -106 -53 0 -1 33 4 73 12 90 19 176 6
275 -38 l67 -31 -34 35 c-63 65 -184 98 -275 75z"/>
<path d="M1335 649 c-114 -87 -233 -191 -240 -211 -4 -12 16 -56 61 -129 l66
-111 31 39 c58 71 142 155 240 240 l97 85 -42 28 c-24 15 -62 48 -86 73 -23
26 -44 47 -45 47 -2 0 -39 -27 -82 -61z"/>
</g>
</svg>
